<svg xmlns="http://www.w3.org/2000/svg" viewBox="40 0 140 360" fill="none">
  <defs>
    <linearGradient id="L" x1="70" y1="0" x2="110" y2="360">
      <stop offset="0%" stop-color="#FFE9A0"/>
      <stop offset="35%" stop-color="#FFB02A"/>
      <stop offset="70%" stop-color="#FF6A10"/>
      <stop offset="100%" stop-color="#D43000"/>
    </linearGradient>
    <linearGradient id="R" x1="120" y1="40" x2="170" y2="360">
      <stop offset="0%" stop-color="#FFE7A8"/>
      <stop offset="40%" stop-color="#FFA820"/>
      <stop offset="75%" stop-color="#FF5E0C"/>
      <stop offset="100%" stop-color="#C42800"/>
    </linearGradient>
  </defs>
  <path fill="url(#L)" d="M108 8C78 70 52 140 64 220c10 64 40 112 70 124-8-40-20-92-38-150C80 140 78 72 108 8Z"/>
  <path fill="url(#R)" d="M132 56c-8 52 2 118 22 176 14 40 36 78 44 92 16-40 4-100-12-158C174 112 152 74 132 56Z"/>
</svg>
